<svg width="86" height="86" viewBox="0 0 86 86" fill="none" xmlns="http://www.w3.org/2000/svg">
<path d="M75.25 81.5208H10.75C9.28083 81.5208 8.0625 80.3025 8.0625 78.8333C8.0625 77.3641 9.28083 76.1458 10.75 76.1458H75.25C76.7192 76.1458 77.9375 77.3641 77.9375 78.8333C77.9375 80.3025 76.7192 81.5208 75.25 81.5208ZM20.0667 30.0247H14.3333C12.3625 30.0247 10.75 31.6372 10.75 33.608V64.4964C10.75 66.4672 12.3625 68.0797 14.3333 68.0797H20.0667C22.0375 68.0797 23.65 66.4672 23.65 64.4964V33.608C23.65 31.6014 22.0375 30.0247 20.0667 30.0247ZM45.8667 18.601H40.1333C38.1625 18.601 36.55 20.2135 36.55 22.1844V64.5035C36.55 66.4744 38.1625 68.0869 40.1333 68.0869H45.8667C47.8375 68.0869 49.45 66.4744 49.45 64.5035V22.1844C49.45 20.2135 47.8375 18.601 45.8667 18.601ZM71.6667 7.16663H65.9333C63.9625 7.16663 62.35 8.77913 62.35 10.75V64.5C62.35 66.4708 63.9625 68.0833 65.9333 68.0833H71.6667C73.6375 68.0833 75.25 66.4708 75.25 64.5V10.75C75.25 8.77913 73.6375 7.16663 71.6667 7.16663Z" fill="#04143D"/>
</svg>
