<svg width="86" height="85" viewBox="0 0 86 85" fill="none" xmlns="http://www.w3.org/2000/svg">
<path d="M53.4992 8.85415V29.75C53.4992 31.3083 51.6359 32.0875 50.4892 31.0604L44.2184 25.3583C43.8886 25.0515 43.4529 24.8807 43 24.8807C42.5472 24.8807 42.1114 25.0515 41.7817 25.3583L35.5109 31.025C34.3642 32.0875 32.5009 31.2729 32.5009 29.75V8.85415C32.5009 7.86248 33.2892 7.08331 34.2925 7.08331H51.7075C52.7109 7.08331 53.4992 7.86248 53.4992 8.85415Z" fill="#04143D"/>
<path d="M60.845 7.2923C59.8058 7.15064 58.8742 8.03605 58.8742 9.06314V30.384C58.8742 33.0756 57.2617 35.5194 54.7533 36.6173C52.245 37.6798 49.3425 37.2194 47.3358 35.3777L44.2183 32.5444C43.8886 32.2376 43.4528 32.0667 43 32.0667C42.5472 32.0667 42.1114 32.2376 41.7817 32.5444L38.6642 35.3777C37.3742 36.5819 35.69 37.184 34.0058 37.184C33.0562 37.1873 32.1163 36.9943 31.2467 36.6173C28.7383 35.5194 27.1258 33.0756 27.1258 30.384V9.06314C27.1258 8.03605 26.1942 7.15064 25.155 7.2923C15.1217 8.53189 10.75 15.2256 10.75 24.7881V60.2048C10.75 70.8298 16.125 77.9131 28.6667 77.9131H57.3333C69.875 77.9131 75.25 70.8298 75.25 60.2048V24.7881C75.25 15.2256 70.8783 8.53189 60.845 7.2923V7.2923ZM62.7083 66.4027H32.25C30.7808 66.4027 29.5625 65.1986 29.5625 63.7465C29.5625 62.2944 30.7808 61.0902 32.25 61.0902H62.7083C64.1775 61.0902 65.3958 62.2944 65.3958 63.7465C65.3958 65.1986 64.1775 66.4027 62.7083 66.4027ZM62.7083 52.236H47.4792C46.01 52.236 44.7917 51.0319 44.7917 49.5798C44.7917 48.1277 46.01 46.9235 47.4792 46.9235H62.7083C64.1775 46.9235 65.3958 48.1277 65.3958 49.5798C65.3958 51.0319 64.1775 52.236 62.7083 52.236Z" fill="#04143D"/>
</svg>
