<svg width="86" height="85" viewBox="0 0 86 85" fill="none" xmlns="http://www.w3.org/2000/svg">
<path d="M55.5416 46.5729H47.7658C41.3875 46.5729 36.1916 41.4729 36.1916 35.1333V27.4479C36.1916 25.9958 35.0091 24.7917 33.5041 24.7917H22.145C13.8675 24.7917 7.16663 30.1042 7.16663 39.5958V63.1125C7.16663 72.6042 13.8675 77.9167 22.145 77.9167H43.2508C51.5283 77.9167 58.2291 72.6042 58.2291 63.1125V49.2292C58.2291 47.7417 57.0108 46.5729 55.5416 46.5729Z" fill="#04143D"/>
<path d="M63.855 7.08334H42.7491C34.6508 7.08334 28.0933 12.1833 27.8066 21.2854C28.0216 21.2854 28.2008 21.25 28.4158 21.25H49.5216C57.7991 21.25 64.5 26.5625 64.5 36.0542V59.6063C64.5 59.8188 64.4641 59.9958 64.4641 60.1729C72.455 59.925 78.8333 54.6833 78.8333 45.4396V21.8875C78.8333 12.3958 72.1325 7.08334 63.855 7.08334Z" fill="#04143D"/>
<path d="M42.9283 25.33C41.8175 24.2321 39.9183 24.9758 39.9183 26.4987V35.7779C39.9183 39.6738 43.2508 42.8613 47.3358 42.8613C49.88 42.8967 53.4275 42.8967 56.4733 42.8967C58.0142 42.8967 58.8025 41.1258 57.7275 40.0633C53.8217 36.2029 46.87 29.2967 42.9283 25.33V25.33Z" fill="#04143D"/>
</svg>
