<svg width="86" height="85" viewBox="0 0 86 85" fill="none" xmlns="http://www.w3.org/2000/svg">
<path d="M75.5761 24.7208C72.5303 21.3917 67.442 19.7271 60.0603 19.7271H59.2003V19.5854C59.2003 13.6354 59.2003 6.26874 45.727 6.26874H40.2803C26.807 6.26874 26.807 13.6708 26.807 19.5854V19.7625H25.947C18.5295 19.7625 13.477 21.4271 10.4311 24.7562C6.88363 28.6521 6.99113 33.8937 7.34947 37.4708L7.3853 37.7187L7.66122 40.5981C7.71497 41.1294 8.00163 41.6075 8.45313 41.8979C9.31313 42.4539 10.75 43.3712 11.6136 43.8458C12.1153 44.1646 12.6528 44.4479 13.1903 44.7312C19.3178 48.0604 26.0545 50.2917 32.8986 51.3896C33.2211 54.7187 34.6903 58.6146 42.5378 58.6146C50.3853 58.6146 51.9261 54.7542 52.177 51.3187C59.487 50.15 66.5461 47.6354 72.9245 43.9521C73.1395 43.8458 73.2828 43.7396 73.462 43.6333C74.8845 42.8364 76.3573 41.8589 77.701 40.8992C77.9011 40.756 78.0686 40.573 78.1926 40.3619C78.3167 40.1508 78.3946 39.9164 78.4213 39.6737L78.4786 39.1673L78.6578 37.5027C78.6936 37.2902 78.6936 37.1131 78.7295 36.8652C79.0161 33.2881 78.9445 28.4006 75.5761 24.7173V24.7208ZM46.9095 48.9812C46.9095 52.7354 46.9095 53.3021 42.502 53.3021C38.0945 53.3021 38.0945 52.6292 38.0945 49.0167V44.5542H46.9095V48.9812ZM31.9311 19.7271V19.5854C31.9311 13.5646 31.9311 11.3333 40.2803 11.3333H45.727C54.0761 11.3333 54.0761 13.6 54.0761 19.5854V19.7625H31.9311V19.7271Z" fill="#04143D"/>
<path d="M74.7949 48.6448C75.0846 48.5085 75.4055 48.4502 75.7253 48.4756C76.045 48.5011 76.3523 48.6094 76.6162 48.7897C76.8801 48.9701 77.0911 49.216 77.2281 49.5027C77.3651 49.7894 77.4232 50.1067 77.3964 50.4227L76.1064 64.4265C75.3539 71.5098 72.4156 78.7348 56.6489 78.7348H29.3475C13.5809 78.7348 10.6425 71.5098 9.89002 64.4619L8.67169 51.1877C8.64457 50.8749 8.70073 50.5605 8.83461 50.2758C8.96848 49.9911 9.1754 49.746 9.4348 49.5648C9.69421 49.3836 9.99706 49.2727 10.3133 49.243C10.6295 49.2133 10.9481 49.2659 11.2374 49.3956C15.3224 51.2231 22.8545 54.4602 27.5093 55.6644C27.7998 55.7423 28.0693 55.8827 28.2985 56.0756C28.5277 56.2684 28.7109 56.509 28.8351 56.78C31.0102 61.3771 35.7259 63.8244 42.5378 63.8244C49.2816 63.8244 54.0582 61.2815 56.2404 56.6738C56.3648 56.4029 56.5481 56.1624 56.7773 55.9696C57.0065 55.7767 57.2759 55.6363 57.5663 55.5581C62.5077 54.2725 70.5308 50.6529 74.8021 48.6448H74.7949Z" fill="#04143D"/>
</svg>
